#define ea61ecae7f144093a1e8565eb8bcc63bcQD9Nu1BPbh3Inb9_width 128
#define ea61ecae7f144093a1e8565eb8bcc63bcQD9Nu1BPbh3Inb9_height 128
static char ea61ecae7f144093a1e8565eb8bcc63bcQD9Nu1BPbh3Inb9_bits[] = {
  0x00, 0x00, 0x00, 0x00, 0x00, 0x00, 0x00, 0xC0, 0x03, 0x00, 0x00, 0x00, 
  0x00, 0x00, 0x00, 0x00, 0x00, 0x00, 0x00, 0x00, 0x00, 0x00, 0x00, 0xF8, 
  0x1F, 0x00, 0x00, 0x00, 0x00, 0x00, 0x00, 0x00, 0x00, 0x00, 0x00, 0x00, 
  0x00, 0x00, 0x80, 0xFF, 0xFF, 0x00, 0x00, 0x00, 0x00, 0x00, 0x00, 0x00, 
  0x00, 0x00, 0x00, 0x00, 0x00, 0x00, 0xE0, 0xFF, 0xFF, 0x0F, 0x00, 0x00, 
  0x00, 0x00, 0x00, 0x00, 0x00, 0x00, 0x00, 0x00, 0x00, 0x00, 0xFE, 0xFF, 
  0xFF, 0x7F, 0x00, 0x00, 0x00, 0x00, 0x00, 0x00, 0x00, 0x00, 0x00, 0x00, 
  0x00, 0xC0, 0xFF, 0xFF, 0xFF, 0xFF, 0x03, 0x00, 0x00, 0x00, 0x00, 0x00, 
  0x00, 0x00, 0x00, 0x00, 0x00, 0xFC, 0xFF, 0xFF, 0xFF, 0xFF, 0x1F, 0x00, 
  0x00, 0x00, 0x00, 0x00, 0x00, 0x00, 0x00, 0x00, 0x80, 0xFF, 0xFF, 0xFF, 
  0xFF, 0xFF, 0xFF, 0x01, 0x00, 0x00, 0x00, 0x00, 0x00, 0x00, 0x00, 0x00, 
  0xF0, 0xFF, 0xFF, 0x7F, 0xFE, 0xFF, 0xFF, 0x0F, 0x00, 0x00, 0x00, 0x00, 
  0x00, 0x00, 0x00, 0x00, 0xFE, 0xFF, 0xFF, 0x0F, 0xF0, 0xFF, 0xFF, 0xFF, 
  0x00, 0x00, 0x00, 0x00, 0x00, 0x00, 0x00, 0xC0, 0xFF, 0xFF, 0xFF, 0x00, 
  0x00, 0xFF, 0xFF, 0xFF, 0x03, 0x00, 0x00, 0x00, 0x00, 0x00, 0x00, 0xFC, 
  0xFF, 0xFF, 0x1F, 0x00, 0x00, 0xF8, 0xFF, 0xFF, 0x3F, 0x00, 0x00, 0x00, 
  0x00, 0x00, 0x80, 0xFF, 0xFF, 0xFF, 0x03, 0x00, 0x00, 0xC0, 0xFF, 0xFF, 
  0xFF, 0x01, 0x00, 0x00, 0x00, 0x00, 0xF0, 0xFF, 0xFF, 0x3F, 0x00, 0x00, 
  0x00, 0x00, 0xFC, 0xFF, 0xFF, 0x0F, 0x00, 0x00, 0x00, 0x00, 0xFF, 0xFF, 
  0xFF, 0x07, 0x00, 0x00, 0x00, 0x00, 0xE0, 0xFF, 0xFF, 0xFF, 0x00, 0x00, 
  0x00, 0xE0, 0xFF, 0xFF, 0xFF, 0x00, 0x00, 0x00, 0x00, 0x00, 0x00, 0xFF, 
  0xFF, 0xFF, 0x07, 0x00, 0x00, 0xFC, 0xFF, 0xFF, 0x1F, 0x00, 0x00, 0x00, 
  0x00, 0x00, 0x00, 0xF8, 0xFF, 0xFF, 0x3F, 0x00, 0x00, 0xFE, 0xFF, 0xFF, 
  0x01, 0x00, 0x00, 0x00, 0x00, 0x00, 0x00, 0x80, 0xFF, 0xFF, 0x7F, 0x00, 
  0x00, 0xFF, 0xFF, 0x3F, 0x00, 0x00, 0x00, 0x00, 0x00, 0x00, 0x00, 0x00, 
  0xFE, 0xFF, 0xFF, 0x00, 0x00, 0xFF, 0xFF, 0x07, 0x00, 0x00, 0x00, 0x00, 
  0x00, 0x00, 0x00, 0x00, 0xE0, 0xFF, 0xFF, 0x00, 0x00, 0xFF, 0x7F, 0x00, 
  0x00, 0x00, 0x00, 0x00, 0x00, 0x00, 0x00, 0x00, 0x00, 0xFF, 0xFF, 0x00, 
  0x00, 0xFF, 0x1F, 0x00, 0x00, 0x00, 0x00, 0x00, 0x00, 0x00, 0x00, 0x00, 
  0x00, 0xF0, 0xFF, 0x00, 0x00, 0xFF, 0x01, 0x00, 0x00, 0x00, 0x00, 0x00, 
  0x00, 0x00, 0x00, 0x00, 0x00, 0x80, 0xFF, 0x00, 0x00, 0xFF, 0x00, 0x00, 
  0x00, 0x00, 0x00, 0x00, 0x00, 0x00, 0x00, 0x00, 0x00, 0x00, 0xFF, 0x00, 
  0x00, 0xFF, 0x00, 0x00, 0x00, 0x00, 0x00, 0x00, 0x00, 0x00, 0x00, 0x00, 
  0x00, 0x00, 0xFF, 0x00, 0x00, 0xFF, 0x00, 0x00, 0x00, 0x00, 0x00, 0x00, 
  0x00, 0x00, 0x00, 0x00, 0x00, 0x00, 0xFF, 0x00, 0x00, 0xFF, 0x00, 0x00, 
  0x00, 0x00, 0x00, 0x00, 0x00, 0x00, 0x00, 0x00, 0x00, 0x00, 0xFF, 0x00, 
  0x00, 0xFF, 0x00, 0x00, 0x00, 0x00, 0x00, 0x00, 0x00, 0x00, 0x00, 0x00, 
  0x00, 0x00, 0xFF, 0x00, 0x00, 0xFF, 0x00, 0x00, 0x00, 0x00, 0x00, 0x00, 
  0x00, 0x00, 0x00, 0x00, 0x00, 0x00, 0xFF, 0x00, 0x00, 0xFF, 0x00, 0x00, 
  0x00, 0x00, 0x00, 0x00, 0x00, 0x00, 0x00, 0x00, 0x00, 0x00, 0xFF, 0x00, 
  0x00, 0xFF, 0x00, 0x00, 0x00, 0x00, 0x00, 0x00, 0x00, 0x00, 0x00, 0x00, 
  0x00, 0x00, 0xFF, 0x00, 0x00, 0xFF, 0x00, 0x00, 0x00, 0x00, 0x00, 0x00, 
  0x00, 0x00, 0x00, 0x00, 0x00, 0x00, 0xFF, 0x00, 0x00, 0xFF, 0x00, 0x00, 
  0x00, 0x00, 0x00, 0x54, 0x44, 0x00, 0x00, 0x00, 0x00, 0x00, 0xFF, 0x00, 
  0x00, 0xFF, 0x00, 0x00, 0x00, 0x00, 0x00, 0xA9, 0xBB, 0x00, 0x00, 0x00, 
  0x00, 0x00, 0xFF, 0x00, 0x00, 0xFF, 0x00, 0x00, 0x00, 0x00, 0x00, 0x86, 
  0x22, 0x00, 0x00, 0x00, 0x00, 0x00, 0xFF, 0x00, 0x00, 0xFF, 0x00, 0x00, 
  0x00, 0x00, 0x00, 0x55, 0x55, 0x00, 0x00, 0x00, 0x00, 0x00, 0xFF, 0x00, 
  0x00, 0xFF, 0x00, 0x00, 0x00, 0x00, 0x00, 0xAA, 0xD2, 0x00, 0x00, 0x00, 
  0x00, 0x00, 0xFE, 0x00, 0x00, 0x7F, 0x00, 0x00, 0x00, 0x00, 0x00, 0x84, 
  0x29, 0x00, 0x00, 0x00, 0x00, 0x00, 0xFF, 0x00, 0x00, 0xFF, 0x00, 0x00, 
  0x00, 0x00, 0x00, 0x5D, 0x94, 0x00, 0x00, 0x00, 0x00, 0x00, 0xFF, 0x00, 
  0x00, 0xFF, 0x00, 0x00, 0x00, 0x00, 0x00, 0xA2, 0x2B, 0x00, 0x00, 0x00, 
  0x00, 0x00, 0xFF, 0x00, 0x00, 0xFF, 0x00, 0x00, 0x00, 0x00, 0x00, 0x9A, 
  0xB6, 0x00, 0x00, 0x00, 0x00, 0x00, 0xFF, 0x00, 0x80, 0xFF, 0x00, 0x00, 
  0x00, 0x00, 0x00, 0x45, 0x49, 0x00, 0x00, 0x00, 0x00, 0x00, 0xFF, 0x00, 
  0x00, 0x7F, 0x00, 0x00, 0x00, 0x03, 0x80, 0x94, 0x92, 0x02, 0x80, 0x01, 
  0x00, 0x00, 0xFE, 0x00, 0x00, 0xFF, 0x00, 0x00, 0x80, 0x04, 0x60, 0x6A, 
  0x29, 0x06, 0x50, 0x00, 0x00, 0x00, 0xFF, 0x01, 0x00, 0xFF, 0x00, 0x00, 
  0x00, 0x2A, 0x40, 0x55, 0x54, 0x0D, 0x48, 0x00, 0x00, 0x00, 0xFF, 0x00, 
  0x00, 0x7F, 0x00, 0x00, 0x80, 0x55, 0xB6, 0xA6, 0x6B, 0x32, 0x92, 0x01, 
  0x00, 0x00, 0xFE, 0x00, 0x80, 0xFF, 0x00, 0x00, 0x40, 0x14, 0x69, 0x9A, 
  0xA6, 0xA9, 0x6A, 0x02, 0x00, 0x00, 0xFF, 0x00, 0x00, 0x7F, 0x00, 0x00, 
  0xA0, 0xAA, 0x12, 0x45, 0x49, 0x52, 0x95, 0x05, 0x00, 0x00, 0xFE, 0x01, 
  0x00, 0xFF, 0x00, 0x00, 0x40, 0x65, 0x51, 0x8A, 0x24, 0x49, 0x55, 0x05, 
  0x00, 0x00, 0xFF, 0x00, 0x00, 0xFF, 0x00, 0x00, 0x90, 0x9A, 0xA6, 0x65, 
  0x99, 0xA6, 0x9A, 0x06, 0x00, 0x00, 0xFF, 0x00, 0x00, 0x7F, 0x00, 0x00, 
  0x68, 0x28, 0xAA, 0x55, 0x66, 0x69, 0x28, 0x0A, 0x00, 0x00, 0xFF, 0x01, 
  0x80, 0xFF, 0x00, 0x00, 0x90, 0x55, 0x55, 0xAA, 0x99, 0x96, 0x55, 0x14, 
  0x00, 0x00, 0xFE, 0x00, 0x00, 0xFF, 0x00, 0x00, 0x28, 0x69, 0x45, 0xA2, 
  0x66, 0x29, 0x4D, 0x29, 0x00, 0x00, 0xFF, 0x00, 0x00, 0x7F, 0x00, 0x00, 
  0x92, 0x96, 0xA2, 0x49, 0x99, 0x94, 0xB2, 0x46, 0x00, 0x00, 0xFF, 0x00, 
  0x00, 0xFF, 0x00, 0x00, 0x58, 0x69, 0x69, 0x96, 0x24, 0x59, 0x69, 0x59, 
  0x00, 0x00, 0xFE, 0x01, 0x80, 0x7F, 0x00, 0x00, 0xA4, 0x92, 0x96, 0x69, 
  0x9A, 0xA6, 0x92, 0x26, 0x00, 0x00, 0xFF, 0x00, 0x00, 0xFF, 0x00, 0x00, 
  0x90, 0x22, 0x9A, 0x02, 0x20, 0x55, 0x12, 0x05, 0x00, 0x00, 0xFF, 0x00, 
  0x00, 0xFF, 0x00, 0x00, 0x40, 0x59, 0x65, 0x05, 0xC0, 0x62, 0x69, 0x02, 
  0x00, 0x00, 0xFF, 0x00, 0x00, 0x7F, 0x00, 0x00, 0x00, 0x65, 0x51, 0x02, 
  0x40, 0xAA, 0xB2, 0x02, 0x00, 0x00, 0xFE, 0x00, 0x00, 0xFF, 0x00, 0x00, 
  0x00, 0x9A, 0x2A, 0x01, 0x00, 0x55, 0x4D, 0x00, 0x00, 0x00, 0xFF, 0x00, 
  0x00, 0xFF, 0x00, 0x00, 0x00, 0x64, 0x95, 0x00, 0x00, 0x45, 0x55, 0x00, 
  0x00, 0x00, 0xFF, 0x00, 0x00, 0xFF, 0x00, 0x00, 0x00, 0x9A, 0x62, 0x00, 
  0x00, 0xA2, 0x28, 0x00, 0x00, 0x00, 0xFF, 0x00, 0x00, 0xFF, 0x00, 0x00, 
  0x00, 0x24, 0x9A, 0x00, 0x00, 0x6A, 0x9A, 0x00, 0x00, 0x00, 0xFF, 0x00, 
  0x00, 0xFF, 0x00, 0x00, 0x00, 0x5A, 0x65, 0x00, 0x00, 0x55, 0x55, 0x00, 
  0x00, 0x00, 0xFF, 0x00, 0x00, 0xFF, 0x00, 0x00, 0x00, 0x9A, 0x45, 0x00, 
  0x00, 0x48, 0x65, 0x00, 0x00, 0x00, 0xFF, 0x00, 0x00, 0xFF, 0x00, 0x00, 
  0x00, 0x24, 0xB2, 0x00, 0x00, 0x96, 0x9A, 0x00, 0x00, 0x00, 0xFF, 0x00, 
  0x00, 0xFF, 0x00, 0x00, 0x00, 0x9A, 0x69, 0x00, 0x00, 0x4D, 0x29, 0x00, 
  0x00, 0x00, 0x7F, 0x00, 0x00, 0xFF, 0x00, 0x00, 0x00, 0x68, 0x15, 0x00, 
  0x00, 0xB2, 0x94, 0x00, 0x00, 0x00, 0xFF, 0x00, 0x00, 0xFE, 0x00, 0x00, 
  0x00, 0xDA, 0xAA, 0x01, 0x00, 0xAA, 0x69, 0x00, 0x00, 0x00, 0xFF, 0x00, 
  0x00, 0xFF, 0x01, 0x00, 0x00, 0x25, 0x55, 0x02, 0x40, 0x14, 0x96, 0x00, 
  0x00, 0x00, 0x7F, 0x00, 0x00, 0xFE, 0x01, 0x00, 0x40, 0x99, 0x51, 0x01, 
  0x80, 0x59, 0x65, 0x05, 0x00, 0x80, 0xFF, 0x00, 0x00, 0xFE, 0x00, 0x00, 
  0xA0, 0x24, 0xAA, 0x0C, 0x60, 0xAA, 0x92, 0x0A, 0x00, 0x80, 0x7F, 0x00, 
  0x00, 0xFE, 0x01, 0x00, 0xA8, 0x92, 0x55, 0x6D, 0xA6, 0x51, 0x14, 0x22, 
  0x00, 0x80, 0x7F, 0x00, 0x00, 0xFE, 0x01, 0x00, 0x14, 0x65, 0x61, 0x92, 
  0x59, 0xA6, 0x69, 0x4D, 0x00, 0x80, 0x7F, 0x00, 0x00, 0xFE, 0x01, 0x00, 
  0x54, 0xD6, 0xAA, 0x29, 0x66, 0x6B, 0xAA, 0x56, 0x00, 0x80, 0x7F, 0x00, 
  0x00, 0xFE, 0x01, 0x00, 0xA8, 0x2A, 0x55, 0x94, 0x89, 0x54, 0x55, 0x28, 
  0x00, 0x80, 0x7F, 0x00, 0x00, 0xFC, 0x01, 0x00, 0xA8, 0x94, 0x45, 0x2A, 
  0x44, 0x49, 0x55, 0x05, 0x00, 0xC0, 0x3F, 0x00, 0x00, 0xFC, 0x03, 0x00, 
  0x50, 0x49, 0xA2, 0xD6, 0x9A, 0x92, 0xAA, 0x1A, 0x00, 0xC0, 0x3F, 0x00, 
  0x00, 0xFC, 0x03, 0x00, 0x10, 0x92, 0x69, 0x65, 0x26, 0x49, 0x28, 0x0A, 
  0x00, 0xC0, 0x3F, 0x00, 0x00, 0xFC, 0x03, 0x00, 0xA0, 0x6D, 0x55, 0x92, 
  0xD9, 0xB6, 0x55, 0x05, 0x00, 0xC0, 0x3F, 0x00, 0x00, 0xFC, 0x07, 0x00, 
  0x20, 0x49, 0x92, 0x24, 0xA6, 0xA5, 0x2A, 0x02, 0x00, 0xE0, 0x3F, 0x00, 
  0x00, 0xF8, 0x07, 0x00, 0x40, 0x96, 0x65, 0x99, 0x59, 0x5A, 0x95, 0x01, 
  0x00, 0xE0, 0x1F, 0x00, 0x00, 0xF8, 0x07, 0x00, 0x00, 0x69, 0x9A, 0x66, 
  0x14, 0x28, 0x4C, 0x02, 0x00, 0xE0, 0x1F, 0x00, 0x00, 0xF8, 0x07, 0x00, 
  0x80, 0x16, 0x60, 0x99, 0xAA, 0x15, 0xB0, 0x01, 0x00, 0xE0, 0x1F, 0x00, 
  0x00, 0xF8, 0x0F, 0x00, 0x00, 0x06, 0x90, 0x66, 0x92, 0x0A, 0xA0, 0x00, 
  0x00, 0xF0, 0x0F, 0x00, 0x00, 0xF0, 0x0F, 0x00, 0x00, 0x01, 0x40, 0x99, 
  0x6D, 0x01, 0x40, 0x00, 0x00, 0xF0, 0x0F, 0x00, 0x00, 0xF0, 0x1F, 0x00, 
  0x00, 0x00, 0x00, 0x24, 0x96, 0x00, 0x00, 0x00, 0x00, 0xF8, 0x0F, 0x00, 
  0x00, 0xF0, 0x1F, 0x00, 0x00, 0x00, 0x00, 0x9A, 0x49, 0x00, 0x00, 0x00, 
  0x00, 0xF8, 0x0F, 0x00, 0x00, 0xE0, 0x1F, 0x00, 0x00, 0x00, 0x00, 0x59, 
  0x94, 0x00, 0x00, 0x00, 0x00, 0xF8, 0x07, 0x00, 0x00, 0xE0, 0x3F, 0x00, 
  0x00, 0x00, 0x00, 0x24, 0x6A, 0x00, 0x00, 0x00, 0x00, 0xFC, 0x07, 0x00, 
  0x00, 0xC0, 0x3F, 0x00, 0x00, 0x00, 0x00, 0x99, 0x56, 0x00, 0x00, 0x00, 
  0x00, 0xFC, 0x03, 0x00, 0x00, 0xC0, 0x7F, 0x00, 0x00, 0x00, 0x00, 0x66, 
  0x25, 0x00, 0x00, 0x00, 0x00, 0xFE, 0x03, 0x00, 0x00, 0x80, 0xFF, 0x00, 
  0x00, 0x00, 0x00, 0x9A, 0xAA, 0x00, 0x00, 0x00, 0x00, 0xFF, 0x01, 0x00, 
  0x00, 0x80, 0xFF, 0x00, 0x00, 0x00, 0x00, 0x65, 0x54, 0x00, 0x00, 0x00, 
  0x00, 0xFF, 0x01, 0x00, 0x00, 0x00, 0xFF, 0x01, 0x00, 0x00, 0x00, 0x91, 
  0xCD, 0x00, 0x00, 0x00, 0x80, 0xFF, 0x00, 0x00, 0x00, 0x00, 0xFF, 0x01, 
  0x00, 0x00, 0x00, 0x2A, 0x22, 0x00, 0x00, 0x00, 0x80, 0xFF, 0x00, 0x00, 
  0x00, 0x00, 0xFE, 0x03, 0x00, 0x00, 0x00, 0x00, 0x00, 0x00, 0x00, 0x00, 
  0xC0, 0x7F, 0x00, 0x00, 0x00, 0x00, 0xFE, 0x07, 0x00, 0x00, 0x00, 0x00, 
  0x00, 0x00, 0x00, 0x00, 0xE0, 0x7F, 0x00, 0x00, 0x00, 0x00, 0xFC, 0x0F, 
  0x00, 0x00, 0x00, 0x00, 0x00, 0x00, 0x00, 0x00, 0xF0, 0x3F, 0x00, 0x00, 
  0x00, 0x00, 0xFC, 0x0F, 0x00, 0x00, 0x00, 0x00, 0x00, 0x00, 0x00, 0x00, 
  0xF0, 0x3F, 0x00, 0x00, 0x00, 0x00, 0xF8, 0x3F, 0x00, 0x00, 0x00, 0x00, 
  0x00, 0x00, 0x00, 0x00, 0xFC, 0x1F, 0x00, 0x00, 0x00, 0x00, 0xF0, 0x3F, 
  0x00, 0x00, 0x00, 0x00, 0x00, 0x00, 0x00, 0x00, 0xFC, 0x0F, 0x00, 0x00, 
  0x00, 0x00, 0xE0, 0xFF, 0x00, 0x00, 0x00, 0x00, 0x00, 0x00, 0x00, 0x00, 
  0xFE, 0x07, 0x00, 0x00, 0x00, 0x00, 0xC0, 0xFF, 0x00, 0x00, 0x00, 0x00, 
  0x00, 0x00, 0x00, 0x00, 0xFF, 0x03, 0x00, 0x00, 0x00, 0x00, 0x80, 0xFF, 
  0x03, 0x00, 0x00, 0x00, 0x00, 0x00, 0x00, 0xC0, 0xFF, 0x01, 0x00, 0x00, 
  0x00, 0x00, 0x80, 0xFF, 0x07, 0x00, 0x00, 0x00, 0x00, 0x00, 0x00, 0xE0, 
  0xFF, 0x01, 0x00, 0x00, 0x00, 0x00, 0x00, 0xFF, 0x0F, 0x00, 0x00, 0x00, 
  0x00, 0x00, 0x00, 0xF0, 0xFF, 0x00, 0x00, 0x00, 0x00, 0x00, 0x00, 0xFE, 
  0x3F, 0x00, 0x00, 0x00, 0x00, 0x00, 0x00, 0xFC, 0x7F, 0x00, 0x00, 0x00, 
  0x00, 0x00, 0x00, 0xF8, 0x7F, 0x00, 0x00, 0x00, 0x00, 0x00, 0x00, 0xFE, 
  0x3F, 0x00, 0x00, 0x00, 0x00, 0x00, 0x00, 0xF8, 0xFF, 0x00, 0x00, 0x00, 
  0x00, 0x00, 0x80, 0xFF, 0x1F, 0x00, 0x00, 0x00, 0x00, 0x00, 0x00, 0xF0, 
  0xFF, 0x03, 0x00, 0x00, 0x00, 0x00, 0xC0, 0xFF, 0x0F, 0x00, 0x00, 0x00, 
  0x00, 0x00, 0x00, 0xC0, 0xFF, 0x0F, 0x00, 0x00, 0x00, 0x00, 0xF0, 0xFF, 
  0x03, 0x00, 0x00, 0x00, 0x00, 0x00, 0x00, 0x80, 0xFF, 0x3F, 0x00, 0x00, 
  0x00, 0x00, 0xFC, 0xFF, 0x01, 0x00, 0x00, 0x00, 0x00, 0x00, 0x00, 0x00, 
  0xFF, 0xFF, 0x00, 0x00, 0x00, 0x00, 0xFF, 0xFF, 0x00, 0x00, 0x00, 0x00, 
  0x00, 0x00, 0x00, 0x00, 0xFC, 0xFF, 0x03, 0x00, 0x00, 0xC0, 0xFF, 0x3F, 
  0x00, 0x00, 0x00, 0x00, 0x00, 0x00, 0x00, 0x00, 0xF8, 0xFF, 0x0F, 0x00, 
  0x00, 0xF0, 0xFF, 0x1F, 0x00, 0x00, 0x00, 0x00, 0x00, 0x00, 0x00, 0x00, 
  0xE0, 0xFF, 0x7F, 0x00, 0x00, 0xFE, 0xFF, 0x07, 0x00, 0x00, 0x00, 0x00, 
  0x00, 0x00, 0x00, 0x00, 0x80, 0xFF, 0xFF, 0x01, 0x80, 0xFF, 0xFF, 0x03, 
  0x00, 0x00, 0x00, 0x00, 0x00, 0x00, 0x00, 0x00, 0x00, 0xFF, 0xFF, 0x0F, 
  0xF0, 0xFF, 0xFF, 0x00, 0x00, 0x00, 0x00, 0x00, 0x00, 0x00, 0x00, 0x00, 
  0x00, 0xFC, 0xFF, 0x7F, 0xFE, 0xFF, 0x3F, 0x00, 0x00, 0x00, 0x00, 0x00, 
  0x00, 0x00, 0x00, 0x00, 0x00, 0xF0, 0xFF, 0xFF, 0xFF, 0xFF, 0x0F, 0x00, 
  0x00, 0x00, 0x00, 0x00, 0x00, 0x00, 0x00, 0x00, 0x00, 0xC0, 0xFF, 0xFF, 
  0xFF, 0xFF, 0x03, 0x00, 0x00, 0x00, 0x00, 0x00, 0x00, 0x00, 0x00, 0x00, 
  0x00, 0x00, 0xFF, 0xFF, 0xFF, 0xFF, 0x00, 0x00, 0x00, 0x00, 0x00, 0x00, 
  0x00, 0x00, 0x00, 0x00, 0x00, 0x00, 0xF8, 0xFF, 0xFF, 0x1F, 0x00, 0x00, 
  0x00, 0x00, 0x00, 0x00, 0x00, 0x00, 0x00, 0x00, 0x00, 0x00, 0xE0, 0xFF, 
  0xFF, 0x07, 0x00, 0x00, 0x00, 0x00, 0x00, 0x00, 0x00, 0x00, 0x00, 0x00, 
  0x00, 0x00, 0x00, 0xFF, 0xFF, 0x00, 0x00, 0x00, 0x00, 0x00, 0x00, 0x00, 
  0x00, 0x00, 0x00, 0x00, 0x00, 0x00, 0x00, 0xF8, 0x1F, 0x00, 0x00, 0x00, 
  0x00, 0x00, 0x00, 0x00, 0x00, 0x00, 0x00, 0x00, 0x00, 0x00, 0x00, 0xC0, 
  0x03, 0x00, 0x00, 0x00, 0x00, 0x00, 0x00, 0x00, };
